# xmcd CD database file
#
# Track frame offsets:
#	150
#	12997
#	24663
#	37010
#	52209
#	66555
#	77545
#	91788
#	105818
#	119212
#	131306
#	143819
#	156068
#	168358
#	182002
#	196626
#	211261
#	223105
#	234419
#	247368
#	259832
#	273153
#	285423
#	296756
#	311108
#
# Disc length: 4322 seconds
#
# Revision: 0
# Processed by: cddbd v1.5.1PL2 Copyright (c) Steve Scherf et al.
# Submitted via: CDex 1.51
#
DISCID=7110e019
DTITLE=Various Artist - Downhome Blues Classics, Chicago, Disc 1
DYEAR=2005
DGENRE=Blues
TTITLE0=Johnny Young - Money Taking Woman
TTITLE1=Little Willie Foster - Falling Rain Blues
TTITLE2=J.B. and His Hawks - Dim Lights
TTITLE3=Floyd Jones - Dark Road
TTITLE4=Muddy Waters - Blow Wind Blow
TTITLE5=Lee Brown - Bobby Town Boogie
TTITLE6=Tony Hollins - Wine O Woman
TTITLE7=Floyd Jones - Floyd's Blue
TTITLE8=Lazy Bill Lucas - I Had A Dream
TTITLE9=Willie Nix - Just Can't Stay
TTITLE10=Jimmy Rogers - Round About Boogie
TTITLE11=Homesick James - Homesick
TTITLE12=J.B. Lenoir - Carrie Lee
TTITLE13=Leroy Foster - Pet Rabbit
TTITLE14=J.B. and His Hawks - Now She's Gone
TTITLE15=Floyd Jones - Schooldays On My Mind
TTITLE16=Morris Pejoe - It'll Plumb Get It
TTITLE17=Willie Nix - Nervous Wreck
TTITLE18=Floyd Jones - You Can't Live Long
TTITLE19=Tampa Red - I Won't Let Her Do It
TTITLE20=Sunnyland Slim - Going Back To Memphis
TTITLE21=Tony Hollins - I'll Get a Break
TTITLE22=J.B. and His Hawks - Loving You
TTITLE23=Floyd Jones - On The Road Again
TTITLE24=Jimmy Eager - Please Mr Doctor
EXTD=YEAR: 2005
EXTT0=
EXTT1=
EXTT2=
EXTT3=
EXTT4=
EXTT5=
EXTT6=
EXTT7=
EXTT8=
EXTT9=
EXTT10=
EXTT11=
EXTT12=
EXTT13=
EXTT14=
EXTT15=
EXTT16=
EXTT17=
EXTT18=
EXTT19=
EXTT20=
EXTT21=
EXTT22=
EXTT23=
EXTT24=
PLAYORDER=
